<svg width="18" height="18" viewBox="0 0 18 18" xmlns="http://www.w3.org/2000/svg" xmlns:xlink="http://www.w3.org/1999/xlink"><title>Group 3</title><defs><path id="a" d="M18 17.94H0V0h18v17.94z"/></defs><g fill="none" fill-rule="evenodd"><mask id="b" fill="#fff"><use xlink:href="#a"/></mask><path d="M15.338 15.338h-2.67V11.16c0-.996-.017-2.277-1.387-2.277-1.387 0-1.6 1.086-1.6 2.206v4.248H7.015v-8.59h2.558v1.174h.037c.356-.675 1.226-1.387 2.525-1.387 2.704 0 3.203 1.778 3.203 4.092v4.71zM4.004 5.575c-.858 0-1.55-.694-1.55-1.55 0-.853.692-1.547 1.55-1.547.853 0 1.547.694 1.547 1.548 0 .855-.693 1.55-1.546 1.55zm-1.338 9.763H5.34v-8.59H2.665v8.59zM16.666 0H1.327C.597 0 0 .58 0 1.298V16.7C0 17.42.595 18 1.327 18h15.34C17.4 18 18 17.418 18 16.7V1.3C18 .58 17.4 0 16.666 0z" fill="#1A1918" mask="url(#b)"/></g></svg>